<svg id="svgQrWrapper" viewBox="0 0 300 300" xmlns="http://www.w3.org/2000/svg" xmlns:xlink="http://www.w3.org/1999/xlink" width="300" height="300" style="width: 100%; height: 100%; background-color: transparent;"><svg fill="none" xmlns="http://www.w3.org/2000/svg" width="300" height="300" viewBox="0 0 2000 2000"><g><defs><style>.cls1-2{fill:#e98ead}</style></defs><path d="M1793.45 894.54v877.54H206.55V894.54h405.09v224.15L972 1318.13h65.27L1412.38 1108V894.54Z" style="fill: rgb(254, 161, 191);"/><path class="cls1-2" d="M206.55 894.54h405.09v224.15ZM1793.45 894.54q-190.54 106.73-381.07 213.46V894.54ZM1004.88 1330.33l-798.33 441.76h1586.9ZM1412.38 894.54V592H611.64v302.54H206.55q399.17-333.31 798.33-666.63 394.28 333.33 788.57 666.63Z"/><path d="M1174.56 1243.05c-8.7-23.39-34.11-52.62-70.11-59.36-32.12-6-66.44 7-92.44 33.72-26-26.67-60.32-39.73-92.44-33.72-36 6.74-61.41 36-70.11 59.36-22.81 61.31 41.26 157.49 162.44 235.35h.22c121.18-77.86 185.25-174.04 162.44-235.35Z" style="fill: rgb(58, 79, 122);"/><g transform="translate(720, 600)scale(2)" fill="none"><svg width="300" height="300"><style>.background-color{ fill: #fff; }</style><defs><clipPath id="clip-path-dot-color"><path d="M 2.2857142857142856 74.28571428571429v 6.428571428571429h 6.428571428571429v -6.428571428571429z" transform="rotate(0,5.5,77.5)"/><path d="M 2.2857142857142856 119.28571428571429v 6.428571428571429h 6.428571428571429v -6.428571428571429z" transform="rotate(0,5.5,122.5)"/><path d="M 2.2857142857142856 137.28571428571428v 6.428571428571429h 6.428571428571429v -6.428571428571429z" transform="rotate(0,5.5,140.5)"/><path d="M 2.2857142857142856 164.28571428571428v 6.428571428571429h 6.428571428571429v -6.428571428571429z" transform="rotate(0,5.5,167.5)"/><path d="M 1 200.28571428571428v 6.428571428571429h 7.714285714285715v -6.428571428571429z" transform="rotate(-90,5.5,203.5)"/><path d="M 1 209.28571428571428v 6.428571428571429h 9v -6.428571428571429z" transform="rotate(90,5.5,212.5)"/><path d="M 1 218.28571428571428v 6.428571428571429h 7.714285714285715v -6.428571428571429z" transform="rotate(90,5.5,221.5)"/><path d="M 10 74.28571428571429v 6.428571428571429h 7.714285714285715v -6.428571428571429z" transform="rotate(-90,14.5,77.5)"/><path d="M 10 83.28571428571429v 6.428571428571429h 7.714285714285715v -6.428571428571429z" transform="rotate(90,14.5,86.5)"/><path d="M 10 101.28571428571429v 6.428571428571429h 7.714285714285715v -6.428571428571429z" transform="rotate(-90,14.5,104.5)"/><path d="M 10 110.28571428571429v 6.428571428571429h 7.714285714285715v -6.428571428571429z" transform="rotate(90,14.5,113.5)"/><path d="M 10 146.28571428571428v 6.428571428571429h 7.714285714285715v -6.428571428571429z" transform="rotate(-90,14.5,149.5)"/><path d="M 10 155.28571428571428v 6.428571428571429h 9v -6.428571428571429z" transform="rotate(90,14.5,158.5)"/><path d="M 10 164.28571428571428v 6.428571428571429h 9v -6.428571428571429z" transform="rotate(90,14.5,167.5)"/><path d="M 10 173.28571428571428v 6.428571428571429h 7.714285714285715v -6.428571428571429z" transform="rotate(90,14.5,176.5)"/><path d="M 10 191.28571428571428v 6.428571428571429h 7.714285714285715v -6.428571428571429z" transform="rotate(-90,14.5,194.5)"/><path d="M 10 200.28571428571428v 6.428571428571429h 9v -6.428571428571429z" transform="rotate(90,14.5,203.5)"/><path d="M 10 209.28571428571428v 6.428571428571429h 7.714285714285715v -6.428571428571429z" transform="rotate(90,14.5,212.5)"/><path d="M 19 155.28571428571428v 6.428571428571429h 7.714285714285715v -6.428571428571429z" transform="rotate(-90,23.5,158.5)"/><path d="M 19 164.28571428571428v 6.428571428571429h 7.714285714285715v -6.428571428571429z" transform="rotate(90,23.5,167.5)"/><path d="M 20.285714285714285 218.28571428571428v 6.428571428571429h 6.428571428571429v -6.428571428571429z" transform="rotate(0,23.5,221.5)"/><path d="M 28 74.28571428571429v 6.428571428571429h 7.714285714285715v -6.428571428571429z" transform="rotate(-90,32.5,77.5)"/><path d="M 28 83.28571428571429v 6.428571428571429h 9v -6.428571428571429z" transform="rotate(90,32.5,86.5)"/><path d="M 28 92.28571428571429v 6.428571428571429h 9v -6.428571428571429z" transform="rotate(90,32.5,95.5)"/><path d="M 28 101.28571428571429v 6.428571428571429h 9v -6.428571428571429z" transform="rotate(90,32.5,104.5)"/><path d="M 28 110.28571428571429v 6.428571428571429h 9v -6.428571428571429z" transform="rotate(90,32.5,113.5)"/><path d="M 28 119.28571428571429v 6.428571428571429h 9v -6.428571428571429z" transform="rotate(90,32.5,122.5)"/><path d="M 28 128.28571428571428v 6.428571428571429h 9v -6.428571428571429z" transform="rotate(90,32.5,131.5)"/><path d="M 28 137.28571428571428v 6.428571428571429h 9v -6.428571428571429z" transform="rotate(90,32.5,140.5)"/><path d="M 28 146.28571428571428v 6.428571428571429h 7.714285714285715v -6.428571428571429z" transform="rotate(90,32.5,149.5)"/><path d="M 29.285714285714285 164.28571428571428v 6.428571428571429h 6.428571428571429v -6.428571428571429z" transform="rotate(0,32.5,167.5)"/><path d="M 29.285714285714285 200.28571428571428v 6.428571428571429h 6.428571428571429v -6.428571428571429z" transform="rotate(0,32.5,203.5)"/><path d="M 38.285714285714285 74.28571428571429v 6.428571428571429h 6.428571428571429v -6.428571428571429z" transform="rotate(0,41.5,77.5)"/><path d="M 38.285714285714285 92.28571428571429v 6.428571428571429h 6.428571428571429v -6.428571428571429z" transform="rotate(0,41.5,95.5)"/><path d="M 37 155.28571428571428v 6.428571428571429h 7.714285714285715v -6.428571428571429z" transform="rotate(-90,41.5,158.5)"/><path d="M 37 164.28571428571428v 6.428571428571429h 9v -6.428571428571429z" transform="rotate(90,41.5,167.5)"/><path d="M 37 173.28571428571428v 6.428571428571429h 9v -6.428571428571429z" transform="rotate(90,41.5,176.5)"/><path d="M 37 182.28571428571428v 6.428571428571429h 9v -6.428571428571429z" transform="rotate(90,41.5,185.5)"/><path d="M 37 191.28571428571428v 6.428571428571429h 9v -6.428571428571429z" transform="rotate(90,41.5,194.5)"/><path d="M 37 200.28571428571428v 6.428571428571429h 7.714285714285715v -6.428571428571429z" transform="rotate(90,41.5,203.5)"/><path d="M 46 74.28571428571429v 6.428571428571429h 7.714285714285715v -6.428571428571429z" transform="rotate(-90,50.5,77.5)"/><path d="M 46 83.28571428571429v 6.428571428571429h 7.714285714285715v -6.428571428571429z" transform="rotate(90,50.5,86.5)"/><path d="M 47.285714285714285 101.28571428571429v 6.428571428571429h 6.428571428571429v -6.428571428571429z" transform="rotate(0,50.5,104.5)"/><path d="M 47.285714285714285 146.28571428571428v 6.428571428571429h 6.428571428571429v -6.428571428571429z" transform="rotate(0,50.5,149.5)"/><path d="M 46 173.28571428571428v 6.428571428571429h 7.714285714285715v -6.428571428571429z" transform="rotate(-90,50.5,176.5)"/><path d="M 46 182.28571428571428v 6.428571428571429h 7.714285714285715v -6.428571428571429z" transform="rotate(90,50.5,185.5)"/><path d="M 46 200.28571428571428v 6.428571428571429h 7.714285714285715v -6.428571428571429z" transform="rotate(-90,50.5,203.5)"/><path d="M 46 209.28571428571428v 6.428571428571429h 7.714285714285715v -6.428571428571429z" transform="rotate(90,50.5,212.5)"/><path d="M 56.285714285714285 74.28571428571429v 6.428571428571429h 6.428571428571429v -6.428571428571429z" transform="rotate(0,59.5,77.5)"/><path d="M 56.285714285714285 92.28571428571429v 6.428571428571429h 6.428571428571429v -6.428571428571429z" transform="rotate(0,59.5,95.5)"/><path d="M 56.285714285714285 110.28571428571429v 6.428571428571429h 6.428571428571429v -6.428571428571429z" transform="rotate(0,59.5,113.5)"/><path d="M 56.285714285714285 128.28571428571428v 6.428571428571429h 6.428571428571429v -6.428571428571429z" transform="rotate(0,59.5,131.5)"/><path d="M 56.285714285714285 146.28571428571428v 6.428571428571429h 6.428571428571429v -6.428571428571429z" transform="rotate(0,59.5,149.5)"/><path d="M 56.285714285714285 164.28571428571428v 6.428571428571429h 6.428571428571429v -6.428571428571429z" transform="rotate(0,59.5,167.5)"/><path d="M 56.285714285714285 182.28571428571428v 6.428571428571429h 6.428571428571429v -6.428571428571429z" transform="rotate(0,59.5,185.5)"/><path d="M 56.285714285714285 200.28571428571428v 6.428571428571429h 6.428571428571429v -6.428571428571429z" transform="rotate(0,59.5,203.5)"/><path d="M 56.285714285714285 218.28571428571428v 6.428571428571429h 6.428571428571429v -6.428571428571429z" transform="rotate(0,59.5,221.5)"/><path d="M 65.28571428571429 83.28571428571429v 6.428571428571429h 6.428571428571429v -6.428571428571429z" transform="rotate(0,68.5,86.5)"/><path d="M 65.28571428571429 137.28571428571428v 6.428571428571429h 6.428571428571429v -6.428571428571429z" transform="rotate(0,68.5,140.5)"/><path d="M 64 182.28571428571428v 6.428571428571429h 7.714285714285715v -6.428571428571429z" transform="rotate(-90,68.5,185.5)"/><path d="M 64 191.28571428571428v 6.428571428571429h 9v -6.428571428571429z" transform="rotate(90,68.5,194.5)"/><path d="M 64 200.28571428571428v 6.428571428571429h 7.714285714285715v -6.428571428571429z" transform="rotate(90,68.5,203.5)"/><path d="M 65.28571428571429 218.28571428571428v 6.428571428571429h 6.428571428571429v -6.428571428571429z" transform="rotate(0,68.5,221.5)"/><path d="M 74.28571428571429 29.285714285714285v 6.428571428571429h 6.428571428571429v -6.428571428571429z" transform="rotate(0,77.5,32.5)"/><path d="M 74.28571428571429 56.285714285714285v 6.428571428571429h 6.428571428571429v -6.428571428571429z" transform="rotate(0,77.5,59.5)"/><path d="M 73 92.28571428571429v 6.428571428571429h 7.714285714285715v -6.428571428571429z" transform="rotate(-90,77.5,95.5)"/><path d="M 73 101.28571428571429v 6.428571428571429h 7.714285714285715v -6.428571428571429z" transform="rotate(90,77.5,104.5)"/><path d="M 73 119.28571428571429v 6.428571428571429h 7.714285714285715v -6.428571428571429z" transform="rotate(-90,77.5,122.5)"/><path d="M 73 128.28571428571428v 6.428571428571429h 9v -6.428571428571429z" transform="rotate(90,77.5,131.5)"/><path d="M 73 137.28571428571428v 6.428571428571429h 9v -6.428571428571429z" transform="rotate(90,77.5,140.5)"/><path d="M 73 146.28571428571428v 6.428571428571429h 7.714285714285715v -6.428571428571429z" transform="rotate(90,77.5,149.5)"/><path d="M 74.28571428571429 164.28571428571428v 6.428571428571429h 6.428571428571429v -6.428571428571429z" transform="rotate(0,77.5,167.5)"/><path d="M 74.28571428571429 218.28571428571428v 6.428571428571429h 6.428571428571429v -6.428571428571429z" transform="rotate(0,77.5,221.5)"/><path d="M 73 245.28571428571428v 6.428571428571429h 7.714285714285715v -6.428571428571429z" transform="rotate(-90,77.5,248.5)"/><path d="M 73 254.28571428571428v 6.428571428571429h 9v -6.428571428571429z" transform="rotate(90,77.5,257.5)"/><path d="M 73 263.2857142857143v 6.428571428571429h 7.714285714285715v -6.428571428571429z" transform="rotate(90,77.5,266.5)"/><path d="M 73 281.2857142857143v 6.428571428571429h 7.714285714285715v -6.428571428571429z" transform="rotate(-90,77.5,284.5)"/><path d="M 73 290.2857142857143v 6.428571428571429h 7.714285714285715v -6.428571428571429z" transform="rotate(90,77.5,293.5)"/><path d="M 82 20.285714285714285v 6.428571428571429h 7.714285714285715v -6.428571428571429z" transform="rotate(-90,86.5,23.5)"/><path d="M 82 29.285714285714285v 6.428571428571429h 7.714285714285715v -6.428571428571429z" transform="rotate(90,86.5,32.5)"/><path d="M 83.28571428571429 65.28571428571429v 6.428571428571429h 6.428571428571429v -6.428571428571429z" transform="rotate(0,86.5,68.5)"/><path d="M 82 83.28571428571429v 6.428571428571429h 7.714285714285715v -6.428571428571429z" transform="rotate(-90,86.5,86.5)"/><path d="M 82 92.28571428571429v 6.428571428571429h 7.714285714285715v -6.428571428571429z" transform="rotate(90,86.5,95.5)"/><path d="M 83.28571428571429 137.28571428571428v 6.428571428571429h 6.428571428571429v -6.428571428571429z" transform="rotate(0,86.5,140.5)"/><path d="M 82 155.28571428571428v 6.428571428571429h 7.714285714285715v -6.428571428571429z" transform="rotate(-90,86.5,158.5)"/><path d="M 82 164.28571428571428v 6.428571428571429h 9v -6.428571428571429z" transform="rotate(90,86.5,167.5)"/><path d="M 82 173.28571428571428v 6.428571428571429h 9v -6.428571428571429z" transform="rotate(90,86.5,176.5)"/><path d="M 82 182.28571428571428v 6.428571428571429h 9v -6.428571428571429z" transform="rotate(90,86.5,185.5)"/><path d="M 82 191.28571428571428v 6.428571428571429h 9v -6.428571428571429z" transform="rotate(90,86.5,194.5)"/><path d="M 82 200.28571428571428v 6.428571428571429h 9v -6.428571428571429z" transform="rotate(90,86.5,203.5)"/><path d="M 82 209.28571428571428v 6.428571428571429h 9v -6.428571428571429z" transform="rotate(90,86.5,212.5)"/><path d="M 82 218.28571428571428v 6.428571428571429h 7.714285714285715v -6.428571428571429z" transform="rotate(90,86.5,221.5)"/><path d="M 83.28571428571429 236.28571428571428v 6.428571428571429h 6.428571428571429v -6.428571428571429z" transform="rotate(0,86.5,239.5)"/><path d="M 83.28571428571429 263.2857142857143v 6.428571428571429h 6.428571428571429v -6.428571428571429z" transform="rotate(0,86.5,266.5)"/><path d="M 83.28571428571429 290.2857142857143v 6.428571428571429h 6.428571428571429v -6.428571428571429z" transform="rotate(0,86.5,293.5)"/><path d="M 92.28571428571429 29.285714285714285v 6.428571428571429h 6.428571428571429v -6.428571428571429z" transform="rotate(0,95.5,32.5)"/><path d="M 91 47.285714285714285v 6.428571428571429h 7.714285714285715v -6.428571428571429z" transform="rotate(-90,95.5,50.5)"/><path d="M 91 56.285714285714285v 6.428571428571429h 9v -6.428571428571429z" transform="rotate(90,95.5,59.5)"/><path d="M 91 65.28571428571429v 6.428571428571429h 7.714285714285715v -6.428571428571429z" transform="rotate(90,95.5,68.5)"/><path d="M 92.28571428571429 92.28571428571429v 6.428571428571429h 6.428571428571429v -6.428571428571429z" transform="rotate(0,95.5,95.5)"/><path d="M 92.28571428571429 110.28571428571429v 6.428571428571429h 6.428571428571429v -6.428571428571429z" transform="rotate(0,95.5,113.5)"/><path d="M 92.28571428571429 128.28571428571428v 6.428571428571429h 6.428571428571429v -6.428571428571429z" transform="rotate(0,95.5,131.5)"/><path d="M 91 155.28571428571428v 6.428571428571429h 7.714285714285715v -6.428571428571429z" transform="rotate(-90,95.5,158.5)"/><path d="M 91 164.28571428571428v 6.428571428571429h 9v -6.428571428571429z" transform="rotate(90,95.5,167.5)"/><path d="M 91 173.28571428571428v 6.428571428571429h 9v -6.428571428571429z" transform="rotate(90,95.5,176.5)"/><path d="M 91 182.28571428571428v 6.428571428571429h 7.714285714285715v -6.428571428571429z" transform="rotate(90,95.5,185.5)"/><path d="M 92.28571428571429 263.2857142857143v 6.428571428571429h 6.428571428571429v -6.428571428571429z" transform="rotate(0,95.5,266.5)"/><path d="M 92.28571428571429 290.2857142857143v 6.428571428571429h 6.428571428571429v -6.428571428571429z" transform="rotate(0,95.5,293.5)"/><path d="M 101.28571428571429 11.285714285714286v 6.428571428571429h 6.428571428571429v -6.428571428571429z" transform="rotate(0,104.5,14.5)"/><path d="M 101.28571428571429 29.285714285714285v 6.428571428571429h 6.428571428571429v -6.428571428571429z" transform="rotate(0,104.5,32.5)"/><path d="M 100 65.28571428571429v 6.428571428571429h 7.714285714285715v -6.428571428571429z" transform="rotate(-90,104.5,68.5)"/><path d="M 100 74.28571428571429v 6.428571428571429h 9v -6.428571428571429z" transform="rotate(90,104.5,77.5)"/><path d="M 100 83.28571428571429v 6.428571428571429h 9v -6.428571428571429z" transform="rotate(90,104.5,86.5)"/><path d="M 100 92.28571428571429v 6.428571428571429h 9v -6.428571428571429z" transform="rotate(90,104.5,95.5)"/><path d="M 100 101.28571428571429v 6.428571428571429h 7.714285714285715v -6.428571428571429z" transform="rotate(90,104.5,104.5)"/><path d="M 101.28571428571429 119.28571428571429v 6.428571428571429h 6.428571428571429v -6.428571428571429z" transform="rotate(0,104.5,122.5)"/><path d="M 100 164.28571428571428v 6.428571428571429h 7.714285714285715v -6.428571428571429z" transform="rotate(-90,104.5,167.5)"/><path d="M 100 173.28571428571428v 6.428571428571429h 7.714285714285715v -6.428571428571429z" transform="rotate(90,104.5,176.5)"/><path d="M 100 191.28571428571428v 6.428571428571429h 7.714285714285715v -6.428571428571429z" transform="rotate(-90,104.5,194.5)"/><path d="M 100 200.28571428571428v 6.428571428571429h 7.714285714285715v -6.428571428571429z" transform="rotate(90,104.5,203.5)"/><path d="M 101.28571428571429 218.28571428571428v 6.428571428571429h 6.428571428571429v -6.428571428571429z" transform="rotate(0,104.5,221.5)"/><path d="M 101.28571428571429 236.28571428571428v 6.428571428571429h 6.428571428571429v -6.428571428571429z" transform="rotate(0,104.5,239.5)"/><path d="M 101.28571428571429 263.2857142857143v 6.428571428571429h 6.428571428571429v -6.428571428571429z" transform="rotate(0,104.5,266.5)"/><path d="M 101.28571428571429 290.2857142857143v 6.428571428571429h 6.428571428571429v -6.428571428571429z" transform="rotate(0,104.5,293.5)"/><path d="M 110.28571428571429 56.285714285714285v 6.428571428571429h 6.428571428571429v -6.428571428571429z" transform="rotate(0,113.5,59.5)"/><path d="M 109 74.28571428571429v 6.428571428571429h 7.714285714285715v -6.428571428571429z" transform="rotate(-90,113.5,77.5)"/><path d="M 109 83.28571428571429v 6.428571428571429h 7.714285714285715v -6.428571428571429z" transform="rotate(90,113.5,86.5)"/><path d="M 110.28571428571429 101.28571428571429v 6.428571428571429h 6.428571428571429v -6.428571428571429z" transform="rotate(0,113.5,104.5)"/><path d="M 109 119.28571428571429v 6.428571428571429h 7.714285714285715v -6.428571428571429z" transform="rotate(-90,113.5,122.5)"/><path d="M 109 128.28571428571428v 6.428571428571429h 9v -6.428571428571429z" transform="rotate(90,113.5,131.5)"/><path d="M 109 137.28571428571428v 6.428571428571429h 9v -6.428571428571429z" transform="rotate(90,113.5,140.5)"/><path d="M 109 146.28571428571428v 6.428571428571429h 9v -6.428571428571429z" transform="rotate(90,113.5,149.5)"/><path d="M 109 155.28571428571428v 6.428571428571429h 9v -6.428571428571429z" transform="rotate(90,113.5,158.5)"/><path d="M 109 164.28571428571428v 6.428571428571429h 9v -6.428571428571429z" transform="rotate(90,113.5,167.5)"/><path d="M 109 173.28571428571428v 6.428571428571429h 9v -6.428571428571429z" transform="rotate(90,113.5,176.5)"/><path d="M 109 182.28571428571428v 6.428571428571429h 7.714285714285715v -6.428571428571429z" transform="rotate(90,113.5,185.5)"/><path d="M 110.28571428571429 200.28571428571428v 6.428571428571429h 6.428571428571429v -6.428571428571429z" transform="rotate(0,113.5,203.5)"/><path d="M 109 227.28571428571428v 6.428571428571429h 7.714285714285715v -6.428571428571429z" transform="rotate(-90,113.5,230.5)"/><path d="M 109 236.28571428571428v 6.428571428571429h 7.714285714285715v -6.428571428571429z" transform="rotate(90,113.5,239.5)"/><path d="M 110.28571428571429 254.28571428571428v 6.428571428571429h 6.428571428571429v -6.428571428571429z" transform="rotate(0,113.5,257.5)"/><path d="M 110.28571428571429 290.2857142857143v 6.428571428571429h 6.428571428571429v -6.428571428571429z" transform="rotate(0,113.5,293.5)"/><path d="M 118 29.285714285714285v 6.428571428571429h 7.714285714285715v -6.428571428571429z" transform="rotate(-90,122.5,32.5)"/><path d="M 118 38.285714285714285v 6.428571428571429h 9v -6.428571428571429z" transform="rotate(90,122.5,41.5)"/><path d="M 118 47.285714285714285v 6.428571428571429h 7.714285714285715v -6.428571428571429z" transform="rotate(90,122.5,50.5)"/><path d="M 118 74.28571428571429v 6.428571428571429h 7.714285714285715v -6.428571428571429z" transform="rotate(-90,122.5,77.5)"/><path d="M 118 83.28571428571429v 6.428571428571429h 9v -6.428571428571429z" transform="rotate(90,122.5,86.5)"/><path d="M 118 92.28571428571429v 6.428571428571429h 7.714285714285715v -6.428571428571429z" transform="rotate(90,122.5,95.5)"/><path d="M 118 110.28571428571429v 6.428571428571429h 7.714285714285715v -6.428571428571429z" transform="rotate(-90,122.5,113.5)"/><path d="M 118 119.28571428571429v 6.428571428571429h 7.714285714285715v -6.428571428571429z" transform="rotate(90,122.5,122.5)"/><path d="M 119.28571428571429 137.28571428571428v 6.428571428571429h 6.428571428571429v -6.428571428571429z" transform="rotate(0,122.5,140.5)"/><path d="M 119.28571428571429 173.28571428571428v 6.428571428571429h 6.428571428571429v -6.428571428571429z" transform="rotate(0,122.5,176.5)"/><path d="M 119.28571428571429 218.28571428571428v 6.428571428571429h 6.428571428571429v -6.428571428571429z" transform="rotate(0,122.5,221.5)"/><path d="M 118 236.28571428571428v 6.428571428571429h 7.714285714285715v -6.428571428571429z" transform="rotate(-90,122.5,239.5)"/><path d="M 118 245.28571428571428v 6.428571428571429h 9v -6.428571428571429z" transform="rotate(90,122.5,248.5)"/><path d="M 118 254.28571428571428v 6.428571428571429h 9v -6.428571428571429z" transform="rotate(90,122.5,257.5)"/><path d="M 118 263.2857142857143v 6.428571428571429h 7.714285714285715v -6.428571428571429z" transform="rotate(90,122.5,266.5)"/><path d="M 119.28571428571429 290.2857142857143v 6.428571428571429h 6.428571428571429v -6.428571428571429z" transform="rotate(0,122.5,293.5)"/><path d="M 128.28571428571428 2.2857142857142856v 6.428571428571429h 6.428571428571429v -6.428571428571429z" transform="rotate(0,131.5,5.5)"/><path d="M 127 20.285714285714285v 6.428571428571429h 7.714285714285715v -6.428571428571429z" transform="rotate(-90,131.5,23.5)"/><path d="M 127 29.285714285714285v 6.428571428571429h 7.714285714285715v -6.428571428571429z" transform="rotate(90,131.5,32.5)"/><path d="M 127 47.285714285714285v 6.428571428571429h 7.714285714285715v -6.428571428571429z" transform="rotate(-90,131.5,50.5)"/><path d="M 127 56.285714285714285v 6.428571428571429h 9v -6.428571428571429z" transform="rotate(90,131.5,59.5)"/><path d="M 127 65.28571428571429v 6.428571428571429h 7.714285714285715v -6.428571428571429z" transform="rotate(90,131.5,68.5)"/><path d="M 128.28571428571428 83.28571428571429v 6.428571428571429h 6.428571428571429v -6.428571428571429z" transform="rotate(0,131.5,86.5)"/><path d="M 128.28571428571428 119.28571428571429v 6.428571428571429h 6.428571428571429v -6.428571428571429z" transform="rotate(0,131.5,122.5)"/><path d="M 127 155.28571428571428v 6.428571428571429h 7.714285714285715v -6.428571428571429z" transform="rotate(-90,131.5,158.5)"/><path d="M 127 164.28571428571428v 6.428571428571429h 9v -6.428571428571429z" transform="rotate(90,131.5,167.5)"/><path d="M 127 173.28571428571428v 6.428571428571429h 9v -6.428571428571429z" transform="rotate(90,131.5,176.5)"/><path d="M 127 182.28571428571428v 6.428571428571429h 9v -6.428571428571429z" transform="rotate(90,131.5,185.5)"/><path d="M 127 191.28571428571428v 6.428571428571429h 7.714285714285715v -6.428571428571429z" transform="rotate(90,131.5,194.5)"/><path d="M 128.28571428571428 209.28571428571428v 6.428571428571429h 6.428571428571429v -6.428571428571429z" transform="rotate(0,131.5,212.5)"/><path d="M 127 227.28571428571428v 6.428571428571429h 7.714285714285715v -6.428571428571429z" transform="rotate(-90,131.5,230.5)"/><path d="M 127 236.28571428571428v 6.428571428571429h 9v -6.428571428571429z" transform="rotate(90,131.5,239.5)"/><path d="M 127 245.28571428571428v 6.428571428571429h 9v -6.428571428571429z" transform="rotate(90,131.5,248.5)"/><path d="M 127 254.28571428571428v 6.428571428571429h 9v -6.428571428571429z" transform="rotate(90,131.5,257.5)"/><path d="M 127 263.2857142857143v 6.428571428571429h 7.714285714285715v -6.428571428571429z" transform="rotate(90,131.5,266.5)"/><path d="M 128.28571428571428 281.2857142857143v 6.428571428571429h 6.428571428571429v -6.428571428571429z" transform="rotate(0,131.5,284.5)"/><path d="M 136 2.2857142857142856v 6.428571428571429h 7.714285714285715v -6.428571428571429z" transform="rotate(-90,140.5,5.5)"/><path d="M 136 11.285714285714286v 6.428571428571429h 7.714285714285715v -6.428571428571429z" transform="rotate(90,140.5,14.5)"/><path d="M 136 29.285714285714285v 6.428571428571429h 7.714285714285715v -6.428571428571429z" transform="rotate(-90,140.5,32.5)"/><path d="M 136 38.285714285714285v 6.428571428571429h 7.714285714285715v -6.428571428571429z" transform="rotate(90,140.5,41.5)"/><path d="M 136 74.28571428571429v 6.428571428571429h 7.714285714285715v -6.428571428571429z" transform="rotate(-90,140.5,77.5)"/><path d="M 136 83.28571428571429v 6.428571428571429h 9v -6.428571428571429z" transform="rotate(90,140.5,86.5)"/><path d="M 136 92.28571428571429v 6.428571428571429h 7.714285714285715v -6.428571428571429z" transform="rotate(90,140.5,95.5)"/><path d="M 137.28571428571428 146.28571428571428v 6.428571428571429h 6.428571428571429v -6.428571428571429z" transform="rotate(0,140.5,149.5)"/><path d="M 137.28571428571428 164.28571428571428v 6.428571428571429h 6.428571428571429v -6.428571428571429z" transform="rotate(0,140.5,167.5)"/><path d="M 136 182.28571428571428v 6.428571428571429h 7.714285714285715v -6.428571428571429z" transform="rotate(-90,140.5,185.5)"/><path d="M 136 191.28571428571428v 6.428571428571429h 9v -6.428571428571429z" transform="rotate(90,140.5,194.5)"/><path d="M 136 200.28571428571428v 6.428571428571429h 9v -6.428571428571429z" transform="rotate(90,140.5,203.5)"/><path d="M 136 209.28571428571428v 6.428571428571429h 9v -6.428571428571429z" transform="rotate(90,140.5,212.5)"/><path d="M 136 218.28571428571428v 6.428571428571429h 7.714285714285715v -6.428571428571429z" transform="rotate(90,140.5,221.5)"/><path d="M 136 236.28571428571428v 6.428571428571429h 7.714285714285715v -6.428571428571429z" transform="rotate(-90,140.5,239.5)"/><path d="M 136 245.28571428571428v 6.428571428571429h 9v -6.428571428571429z" transform="rotate(90,140.5,248.5)"/><path d="M 136 254.28571428571428v 6.428571428571429h 7.714285714285715v -6.428571428571429z" transform="rotate(90,140.5,257.5)"/><path d="M 146.28571428571428 20.285714285714285v 6.428571428571429h 6.428571428571429v -6.428571428571429z" transform="rotate(0,149.5,23.5)"/><path d="M 145 38.285714285714285v 6.428571428571429h 7.714285714285715v -6.428571428571429z" transform="rotate(-90,149.5,41.5)"/><path d="M 145 47.285714285714285v 6.428571428571429h 9v -6.428571428571429z" transform="rotate(90,149.5,50.5)"/><path d="M 145 56.285714285714285v 6.428571428571429h 9v -6.428571428571429z" transform="rotate(90,149.5,59.5)"/><path d="M 145 65.28571428571429v 6.428571428571429h 9v -6.428571428571429z" transform="rotate(90,149.5,68.5)"/><path d="M 145 74.28571428571429v 6.428571428571429h 7.714285714285715v -6.428571428571429z" transform="rotate(90,149.5,77.5)"/><path d="M 145 92.28571428571429v 6.428571428571429h 7.714285714285715v -6.428571428571429z" transform="rotate(-90,149.5,95.5)"/><path d="M 145 101.28571428571429v 6.428571428571429h 7.714285714285715v -6.428571428571429z" transform="rotate(90,149.5,104.5)"/><path d="M 145 137.28571428571428v 6.428571428571429h 7.714285714285715v -6.428571428571429z" transform="rotate(-90,149.5,140.5)"/><path d="M 145 146.28571428571428v 6.428571428571429h 9v -6.428571428571429z" transform="rotate(90,149.5,149.5)"/><path d="M 145 155.28571428571428v 6.428571428571429h 9v -6.428571428571429z" transform="rotate(90,149.5,158.5)"/><path d="M 145 164.28571428571428v 6.428571428571429h 7.714285714285715v -6.428571428571429z" transform="rotate(90,149.5,167.5)"/><path d="M 146.28571428571428 191.28571428571428v 6.428571428571429h 6.428571428571429v -6.428571428571429z" transform="rotate(0,149.5,194.5)"/><path d="M 146.28571428571428 209.28571428571428v 6.428571428571429h 6.428571428571429v -6.428571428571429z" transform="rotate(0,149.5,212.5)"/><path d="M 146.28571428571428 236.28571428571428v 6.428571428571429h 6.428571428571429v -6.428571428571429z" transform="rotate(0,149.5,239.5)"/><path d="M 145 254.28571428571428v 6.428571428571429h 7.714285714285715v -6.428571428571429z" transform="rotate(-90,149.5,257.5)"/><path d="M 145 263.2857142857143v 6.428571428571429h 9v -6.428571428571429z" transform="rotate(90,149.5,266.5)"/><path d="M 145 272.2857142857143v 6.428571428571429h 7.714285714285715v -6.428571428571429z" transform="rotate(90,149.5,275.5)"/><path d="M 155.28571428571428 65.28571428571429v 6.428571428571429h 6.428571428571429v -6.428571428571429z" transform="rotate(0,158.5,68.5)"/><path d="M 155.28571428571428 92.28571428571429v 6.428571428571429h 6.428571428571429v -6.428571428571429z" transform="rotate(0,158.5,95.5)"/><path d="M 154 137.28571428571428v 6.428571428571429h 7.714285714285715v -6.428571428571429z" transform="rotate(-90,158.5,140.5)"/><path d="M 154 146.28571428571428v 6.428571428571429h 9v -6.428571428571429z" transform="rotate(90,158.5,149.5)"/><path d="M 154 155.28571428571428v 6.428571428571429h 7.714285714285715v -6.428571428571429z" transform="rotate(90,158.5,158.5)"/><path d="M 155.28571428571428 173.28571428571428v 6.428571428571429h 6.428571428571429v -6.428571428571429z" transform="rotate(0,158.5,176.5)"/><path d="M 155.28571428571428 191.28571428571428v 6.428571428571429h 6.428571428571429v -6.428571428571429z" transform="rotate(0,158.5,194.5)"/><path d="M 155.28571428571428 209.28571428571428v 6.428571428571429h 6.428571428571429v -6.428571428571429z" transform="rotate(0,158.5,212.5)"/><path d="M 154 227.28571428571428v 6.428571428571429h 7.714285714285715v -6.428571428571429z" transform="rotate(-90,158.5,230.5)"/><path d="M 154 236.28571428571428v 6.428571428571429h 9v -6.428571428571429z" transform="rotate(90,158.5,239.5)"/><path d="M 154 245.28571428571428v 6.428571428571429h 7.714285714285715v -6.428571428571429z" transform="rotate(90,158.5,248.5)"/><path d="M 154 272.2857142857143v 6.428571428571429h 7.714285714285715v -6.428571428571429z" transform="rotate(-90,158.5,275.5)"/><path d="M 154 281.2857142857143v 6.428571428571429h 7.714285714285715v -6.428571428571429z" transform="rotate(90,158.5,284.5)"/><path d="M 163 11.285714285714286v 6.428571428571429h 7.714285714285715v -6.428571428571429z" transform="rotate(-90,167.5,14.5)"/><path d="M 163 20.285714285714285v 6.428571428571429h 9v -6.428571428571429z" transform="rotate(90,167.5,23.5)"/><path d="M 163 29.285714285714285v 6.428571428571429h 9v -6.428571428571429z" transform="rotate(90,167.5,32.5)"/><path d="M 163 38.285714285714285v 6.428571428571429h 9v -6.428571428571429z" transform="rotate(90,167.5,41.5)"/><path d="M 163 47.285714285714285v 6.428571428571429h 9v -6.428571428571429z" transform="rotate(90,167.5,50.5)"/><path d="M 163 56.285714285714285v 6.428571428571429h 7.714285714285715v -6.428571428571429z" transform="rotate(90,167.5,59.5)"/><path d="M 163 74.28571428571429v 6.428571428571429h 7.714285714285715v -6.428571428571429z" transform="rotate(-90,167.5,77.5)"/><path d="M 163 83.28571428571429v 6.428571428571429h 9v -6.428571428571429z" transform="rotate(90,167.5,86.5)"/><path d="M 163 92.28571428571429v 6.428571428571429h 7.714285714285715v -6.428571428571429z" transform="rotate(90,167.5,95.5)"/><path d="M 164.28571428571428 128.28571428571428v 6.428571428571429h 6.428571428571429v -6.428571428571429z" transform="rotate(0,167.5,131.5)"/><path d="M 163 164.28571428571428v 6.428571428571429h 7.714285714285715v -6.428571428571429z" transform="rotate(-90,167.5,167.5)"/><path d="M 163 173.28571428571428v 6.428571428571429h 9v -6.428571428571429z" transform="rotate(90,167.5,176.5)"/><path d="M 163 182.28571428571428v 6.428571428571429h 9v -6.428571428571429z" transform="rotate(90,167.5,185.5)"/><path d="M 163 191.28571428571428v 6.428571428571429h 9v -6.428571428571429z" transform="rotate(90,167.5,194.5)"/><path d="M 163 200.28571428571428v 6.428571428571429h 7.714285714285715v -6.428571428571429z" transform="rotate(90,167.5,203.5)"/><path d="M 164.28571428571428 227.28571428571428v 6.428571428571429h 6.428571428571429v -6.428571428571429z" transform="rotate(0,167.5,230.5)"/><path d="M 163 245.28571428571428v 6.428571428571429h 7.714285714285715v -6.428571428571429z" transform="rotate(-90,167.5,248.5)"/><path d="M 163 254.28571428571428v 6.428571428571429h 7.714285714285715v -6.428571428571429z" transform="rotate(90,167.5,257.5)"/><path d="M 163 272.2857142857143v 6.428571428571429h 7.714285714285715v -6.428571428571429z" transform="rotate(-90,167.5,275.5)"/><path d="M 163 281.2857142857143v 6.428571428571429h 9v -6.428571428571429z" transform="rotate(90,167.5,284.5)"/><path d="M 163 290.2857142857143v 6.428571428571429h 7.714285714285715v -6.428571428571429z" transform="rotate(90,167.5,293.5)"/><path d="M 172 2.2857142857142856v 6.428571428571429h 7.714285714285715v -6.428571428571429z" transform="rotate(-90,176.5,5.5)"/><path d="M 172 11.285714285714286v 6.428571428571429h 7.714285714285715v -6.428571428571429z" transform="rotate(90,176.5,14.5)"/><path d="M 173.28571428571428 29.285714285714285v 6.428571428571429h 6.428571428571429v -6.428571428571429z" transform="rotate(0,176.5,32.5)"/><path d="M 173.28571428571428 47.285714285714285v 6.428571428571429h 6.428571428571429v -6.428571428571429z" transform="rotate(0,176.5,50.5)"/><path d="M 172 65.28571428571429v 6.428571428571429h 7.714285714285715v -6.428571428571429z" transform="rotate(-90,176.5,68.5)"/><path d="M 172 74.28571428571429v 6.428571428571429h 7.714285714285715v -6.428571428571429z" transform="rotate(90,176.5,77.5)"/><path d="M 172 119.28571428571429v 6.428571428571429h 7.714285714285715v -6.428571428571429z" transform="rotate(-90,176.5,122.5)"/><path d="M 172 128.28571428571428v 6.428571428571429h 7.714285714285715v -6.428571428571429z" transform="rotate(90,176.5,131.5)"/><path d="M 173.28571428571428 146.28571428571428v 6.428571428571429h 6.428571428571429v -6.428571428571429z" transform="rotate(0,176.5,149.5)"/><path d="M 172 182.28571428571428v 6.428571428571429h 7.714285714285715v -6.428571428571429z" transform="rotate(-90,176.5,185.5)"/><path d="M 172 191.28571428571428v 6.428571428571429h 9v -6.428571428571429z" transform="rotate(90,176.5,194.5)"/><path d="M 172 200.28571428571428v 6.428571428571429h 7.714285714285715v -6.428571428571429z" transform="rotate(90,176.5,203.5)"/><path d="M 173.28571428571428 236.28571428571428v 6.428571428571429h 6.428571428571429v -6.428571428571429z" transform="rotate(0,176.5,239.5)"/><path d="M 172 281.2857142857143v 6.428571428571429h 7.714285714285715v -6.428571428571429z" transform="rotate(-90,176.5,284.5)"/><path d="M 172 290.2857142857143v 6.428571428571429h 7.714285714285715v -6.428571428571429z" transform="rotate(90,176.5,293.5)"/><path d="M 182.28571428571428 11.285714285714286v 6.428571428571429h 6.428571428571429v -6.428571428571429z" transform="rotate(0,185.5,14.5)"/><path d="M 182.28571428571428 38.285714285714285v 6.428571428571429h 6.428571428571429v -6.428571428571429z" transform="rotate(0,185.5,41.5)"/><path d="M 182.28571428571428 56.285714285714285v 6.428571428571429h 6.428571428571429v -6.428571428571429z" transform="rotate(0,185.5,59.5)"/><path d="M 181 74.28571428571429v 6.428571428571429h 7.714285714285715v -6.428571428571429z" transform="rotate(-90,185.5,77.5)"/><path d="M 181 83.28571428571429v 6.428571428571429h 9v -6.428571428571429z" transform="rotate(90,185.5,86.5)"/><path d="M 181 92.28571428571429v 6.428571428571429h 9v -6.428571428571429z" transform="rotate(90,185.5,95.5)"/><path d="M 181 101.28571428571429v 6.428571428571429h 9v -6.428571428571429z" transform="rotate(90,185.5,104.5)"/><path d="M 181 110.28571428571429v 6.428571428571429h 9v -6.428571428571429z" transform="rotate(90,185.5,113.5)"/><path d="M 181 119.28571428571429v 6.428571428571429h 7.714285714285715v -6.428571428571429z" transform="rotate(90,185.5,122.5)"/><path d="M 181 146.28571428571428v 6.428571428571429h 7.714285714285715v -6.428571428571429z" transform="rotate(-90,185.5,149.5)"/><path d="M 181 155.28571428571428v 6.428571428571429h 7.714285714285715v -6.428571428571429z" transform="rotate(90,185.5,158.5)"/><path d="M 181 191.28571428571428v 6.428571428571429h 7.714285714285715v -6.428571428571429z" transform="rotate(-90,185.5,194.5)"/><path d="M 181 200.28571428571428v 6.428571428571429h 9v -6.428571428571429z" transform="rotate(90,185.5,203.5)"/><path d="M 181 209.28571428571428v 6.428571428571429h 7.714285714285715v -6.428571428571429z" transform="rotate(90,185.5,212.5)"/><path d="M 181 227.28571428571428v 6.428571428571429h 7.714285714285715v -6.428571428571429z" transform="rotate(-90,185.5,230.5)"/><path d="M 181 236.28571428571428v 6.428571428571429h 7.714285714285715v -6.428571428571429z" transform="rotate(90,185.5,239.5)"/><path d="M 190 11.285714285714286v 6.428571428571429h 7.714285714285715v -6.428571428571429z" transform="rotate(-90,194.5,14.5)"/><path d="M 190 20.285714285714285v 6.428571428571429h 7.714285714285715v -6.428571428571429z" transform="rotate(90,194.5,23.5)"/><path d="M 191.28571428571428 47.285714285714285v 6.428571428571429h 6.428571428571429v -6.428571428571429z" transform="rotate(0,194.5,50.5)"/><path d="M 190 83.28571428571429v 6.428571428571429h 7.714285714285715v -6.428571428571429z" transform="rotate(-90,194.5,86.5)"/><path d="M 190 92.28571428571429v 6.428571428571429h 9v -6.428571428571429z" transform="rotate(90,194.5,95.5)"/><path d="M 190 101.28571428571429v 6.428571428571429h 7.714285714285715v -6.428571428571429z" transform="rotate(90,194.5,104.5)"/><path d="M 190 137.28571428571428v 6.428571428571429h 7.714285714285715v -6.428571428571429z" transform="rotate(-90,194.5,140.5)"/><path d="M 190 146.28571428571428v 6.428571428571429h 9v -6.428571428571429z" transform="rotate(90,194.5,149.5)"/><path d="M 190 155.28571428571428v 6.428571428571429h 9v -6.428571428571429z" transform="rotate(90,194.5,158.5)"/><path d="M 190 164.28571428571428v 6.428571428571429h 9v -6.428571428571429z" transform="rotate(90,194.5,167.5)"/><path d="M 190 173.28571428571428v 6.428571428571429h 9v -6.428571428571429z" transform="rotate(90,194.5,176.5)"/><path d="M 190 182.28571428571428v 6.428571428571429h 9v -6.428571428571429z" transform="rotate(90,194.5,185.5)"/><path d="M 190 191.28571428571428v 6.428571428571429h 7.714285714285715v -6.428571428571429z" transform="rotate(90,194.5,194.5)"/><path d="M 191.28571428571428 209.28571428571428v 6.428571428571429h 6.428571428571429v -6.428571428571429z" transform="rotate(0,194.5,212.5)"/><path d="M 191.28571428571428 227.28571428571428v 6.428571428571429h 6.428571428571429v -6.428571428571429z" transform="rotate(0,194.5,230.5)"/><path d="M 191.28571428571428 263.2857142857143v 6.428571428571429h 6.428571428571429v -6.428571428571429z" transform="rotate(0,194.5,266.5)"/><path d="M 190 281.2857142857143v 6.428571428571429h 7.714285714285715v -6.428571428571429z" transform="rotate(-90,194.5,284.5)"/><path d="M 190 290.2857142857143v 6.428571428571429h 7.714285714285715v -6.428571428571429z" transform="rotate(90,194.5,293.5)"/><path d="M 199 2.2857142857142856v 6.428571428571429h 7.714285714285715v -6.428571428571429z" transform="rotate(-90,203.5,5.5)"/><path d="M 199 11.285714285714286v 6.428571428571429h 9v -6.428571428571429z" transform="rotate(90,203.5,14.5)"/><path d="M 199 20.285714285714285v 6.428571428571429h 7.714285714285715v -6.428571428571429z" transform="rotate(90,203.5,23.5)"/><path d="M 200.28571428571428 38.285714285714285v 6.428571428571429h 6.428571428571429v -6.428571428571429z" transform="rotate(0,203.5,41.5)"/><path d="M 199 56.285714285714285v 6.428571428571429h 7.714285714285715v -6.428571428571429z" transform="rotate(-90,203.5,59.5)"/><path d="M 199 65.28571428571429v 6.428571428571429h 9v -6.428571428571429z" transform="rotate(90,203.5,68.5)"/><path d="M 199 74.28571428571429v 6.428571428571429h 7.714285714285715v -6.428571428571429z" transform="rotate(90,203.5,77.5)"/><path d="M 199 128.28571428571428v 6.428571428571429h 7.714285714285715v -6.428571428571429z" transform="rotate(-90,203.5,131.5)"/><path d="M 199 137.28571428571428v 6.428571428571429h 9v -6.428571428571429z" transform="rotate(90,203.5,140.5)"/><path d="M 199 146.28571428571428v 6.428571428571429h 7.714285714285715v -6.428571428571429z" transform="rotate(90,203.5,149.5)"/><path d="M 200.28571428571428 164.28571428571428v 6.428571428571429h 6.428571428571429v -6.428571428571429z" transform="rotate(0,203.5,167.5)"/><path d="M 199 227.28571428571428v 6.428571428571429h 7.714285714285715v -6.428571428571429z" transform="rotate(-90,203.5,230.5)"/><path d="M 199 236.28571428571428v 6.428571428571429h 7.714285714285715v -6.428571428571429z" transform="rotate(90,203.5,239.5)"/><path d="M 200.28571428571428 254.28571428571428v 6.428571428571429h 6.428571428571429v -6.428571428571429z" transform="rotate(0,203.5,257.5)"/><path d="M 200.28571428571428 290.2857142857143v 6.428571428571429h 6.428571428571429v -6.428571428571429z" transform="rotate(0,203.5,293.5)"/><path d="M 208 11.285714285714286v 6.428571428571429h 7.714285714285715v -6.428571428571429z" transform="rotate(-90,212.5,14.5)"/><path d="M 208 20.285714285714285v 6.428571428571429h 7.714285714285715v -6.428571428571429z" transform="rotate(90,212.5,23.5)"/><path d="M 208 38.285714285714285v 6.428571428571429h 7.714285714285715v -6.428571428571429z" transform="rotate(-90,212.5,41.5)"/><path d="M 208 47.285714285714285v 6.428571428571429h 7.714285714285715v -6.428571428571429z" transform="rotate(90,212.5,50.5)"/><path d="M 208 74.28571428571429v 6.428571428571429h 7.714285714285715v -6.428571428571429z" transform="rotate(-90,212.5,77.5)"/><path d="M 208 83.28571428571429v 6.428571428571429h 7.714285714285715v -6.428571428571429z" transform="rotate(90,212.5,86.5)"/><path d="M 209.28571428571428 101.28571428571429v 6.428571428571429h 6.428571428571429v -6.428571428571429z" transform="rotate(0,212.5,104.5)"/><path d="M 208 119.28571428571429v 6.428571428571429h 7.714285714285715v -6.428571428571429z" transform="rotate(-90,212.5,122.5)"/><path d="M 208 128.28571428571428v 6.428571428571429h 7.714285714285715v -6.428571428571429z" transform="rotate(90,212.5,131.5)"/><path d="M 208 173.28571428571428v 6.428571428571429h 7.714285714285715v -6.428571428571429z" transform="rotate(-90,212.5,176.5)"/><path d="M 208 182.28571428571428v 6.428571428571429h 9v -6.428571428571429z" transform="rotate(90,212.5,185.5)"/><path d="M 208 191.28571428571428v 6.428571428571429h 7.714285714285715v -6.428571428571429z" transform="rotate(90,212.5,194.5)"/><path d="M 208 227.28571428571428v 6.428571428571429h 7.714285714285715v -6.428571428571429z" transform="rotate(-90,212.5,230.5)"/><path d="M 208 236.28571428571428v 6.428571428571429h 7.714285714285715v -6.428571428571429z" transform="rotate(90,212.5,239.5)"/><path d="M 209.28571428571428 254.28571428571428v 6.428571428571429h 6.428571428571429v -6.428571428571429z" transform="rotate(0,212.5,257.5)"/><path d="M 209.28571428571428 281.2857142857143v 6.428571428571429h 6.428571428571429v -6.428571428571429z" transform="rotate(0,212.5,284.5)"/><path d="M 218.28571428571428 2.2857142857142856v 6.428571428571429h 6.428571428571429v -6.428571428571429z" transform="rotate(0,221.5,5.5)"/><path d="M 217 38.285714285714285v 6.428571428571429h 7.714285714285715v -6.428571428571429z" transform="rotate(-90,221.5,41.5)"/><path d="M 217 47.285714285714285v 6.428571428571429h 9v -6.428571428571429z" transform="rotate(90,221.5,50.5)"/><path d="M 217 56.285714285714285v 6.428571428571429h 9v -6.428571428571429z" transform="rotate(90,221.5,59.5)"/><path d="M 217 65.28571428571429v 6.428571428571429h 7.714285714285715v -6.428571428571429z" transform="rotate(90,221.5,68.5)"/><path d="M 217 83.28571428571429v 6.428571428571429h 7.714285714285715v -6.428571428571429z" transform="rotate(-90,221.5,86.5)"/><path d="M 217 92.28571428571429v 6.428571428571429h 9v -6.428571428571429z" transform="rotate(90,221.5,95.5)"/><path d="M 217 101.28571428571429v 6.428571428571429h 9v -6.428571428571429z" transform="rotate(90,221.5,104.5)"/><path d="M 217 110.28571428571429v 6.428571428571429h 9v -6.428571428571429z" transform="rotate(90,221.5,113.5)"/><path d="M 217 119.28571428571429v 6.428571428571429h 9v -6.428571428571429z" transform="rotate(90,221.5,122.5)"/><path d="M 217 128.28571428571428v 6.428571428571429h 9v -6.428571428571429z" transform="rotate(90,221.5,131.5)"/><path d="M 217 137.28571428571428v 6.428571428571429h 7.714285714285715v -6.428571428571429z" transform="rotate(90,221.5,140.5)"/><path d="M 217 155.28571428571428v 6.428571428571429h 7.714285714285715v -6.428571428571429z" transform="rotate(-90,221.5,158.5)"/><path d="M 217 164.28571428571428v 6.428571428571429h 9v -6.428571428571429z" transform="rotate(90,221.5,167.5)"/><path d="M 217 173.28571428571428v 6.428571428571429h 9v -6.428571428571429z" transform="rotate(90,221.5,176.5)"/><path d="M 217 182.28571428571428v 6.428571428571429h 9v -6.428571428571429z" transform="rotate(90,221.5,185.5)"/><path d="M 217 191.28571428571428v 6.428571428571429h 7.714285714285715v -6.428571428571429z" transform="rotate(90,221.5,194.5)"/><path d="M 217 218.28571428571428v 6.428571428571429h 7.714285714285715v -6.428571428571429z" transform="rotate(-90,221.5,221.5)"/><path d="M 217 227.28571428571428v 6.428571428571429h 9v -6.428571428571429z" transform="rotate(90,221.5,230.5)"/><path d="M 217 236.28571428571428v 6.428571428571429h 9v -6.428571428571429z" transform="rotate(90,221.5,239.5)"/><path d="M 217 245.28571428571428v 6.428571428571429h 9v -6.428571428571429z" transform="rotate(90,221.5,248.5)"/><path d="M 217 254.28571428571428v 6.428571428571429h 7.714285714285715v -6.428571428571429z" transform="rotate(90,221.5,257.5)"/><path d="M 218.28571428571428 281.2857142857143v 6.428571428571429h 6.428571428571429v -6.428571428571429z" transform="rotate(0,221.5,284.5)"/><path d="M 227.28571428571428 74.28571428571429v 6.428571428571429h 6.428571428571429v -6.428571428571429z" transform="rotate(0,230.5,77.5)"/><path d="M 227.28571428571428 92.28571428571429v 6.428571428571429h 6.428571428571429v -6.428571428571429z" transform="rotate(0,230.5,95.5)"/><path d="M 227.28571428571428 110.28571428571429v 6.428571428571429h 6.428571428571429v -6.428571428571429z" transform="rotate(0,230.5,113.5)"/><path d="M 227.28571428571428 155.28571428571428v 6.428571428571429h 6.428571428571429v -6.428571428571429z" transform="rotate(0,230.5,158.5)"/><path d="M 227.28571428571428 218.28571428571428v 6.428571428571429h 6.428571428571429v -6.428571428571429z" transform="rotate(0,230.5,221.5)"/><path d="M 227.28571428571428 254.28571428571428v 6.428571428571429h 6.428571428571429v -6.428571428571429z" transform="rotate(0,230.5,257.5)"/><path d="M 226 272.2857142857143v 6.428571428571429h 7.714285714285715v -6.428571428571429z" transform="rotate(-90,230.5,275.5)"/><path d="M 226 281.2857142857143v 6.428571428571429h 9v -6.428571428571429z" transform="rotate(90,230.5,284.5)"/><path d="M 226 290.2857142857143v 6.428571428571429h 7.714285714285715v -6.428571428571429z" transform="rotate(90,230.5,293.5)"/><path d="M 236.28571428571428 83.28571428571429v 6.428571428571429h 6.428571428571429v -6.428571428571429z" transform="rotate(0,239.5,86.5)"/><path d="M 235 101.28571428571429v 6.428571428571429h 7.714285714285715v -6.428571428571429z" transform="rotate(-90,239.5,104.5)"/><path d="M 235 110.28571428571429v 6.428571428571429h 9v -6.428571428571429z" transform="rotate(90,239.5,113.5)"/><path d="M 235 119.28571428571429v 6.428571428571429h 9v -6.428571428571429z" transform="rotate(90,239.5,122.5)"/><path d="M 235 128.28571428571428v 6.428571428571429h 9v -6.428571428571429z" transform="rotate(90,239.5,131.5)"/><path d="M 235 137.28571428571428v 6.428571428571429h 9v -6.428571428571429z" transform="rotate(90,239.5,140.5)"/><path d="M 235 146.28571428571428v 6.428571428571429h 9v -6.428571428571429z" transform="rotate(90,239.5,149.5)"/><path d="M 235 155.28571428571428v 6.428571428571429h 9v -6.428571428571429z" transform="rotate(90,239.5,158.5)"/><path d="M 235 164.28571428571428v 6.428571428571429h 7.714285714285715v -6.428571428571429z" transform="rotate(90,239.5,167.5)"/><path d="M 236.28571428571428 191.28571428571428v 6.428571428571429h 6.428571428571429v -6.428571428571429z" transform="rotate(0,239.5,194.5)"/><path d="M 235 209.28571428571428v 6.428571428571429h 7.714285714285715v -6.428571428571429z" transform="rotate(-90,239.5,212.5)"/><path d="M 235 218.28571428571428v 6.428571428571429h 7.714285714285715v -6.428571428571429z" transform="rotate(90,239.5,221.5)"/><path d="M 236.28571428571428 236.28571428571428v 6.428571428571429h 6.428571428571429v -6.428571428571429z" transform="rotate(0,239.5,239.5)"/><path d="M 236.28571428571428 254.28571428571428v 6.428571428571429h 6.428571428571429v -6.428571428571429z" transform="rotate(0,239.5,257.5)"/><path d="M 236.28571428571428 281.2857142857143v 6.428571428571429h 6.428571428571429v -6.428571428571429z" transform="rotate(0,239.5,284.5)"/><path d="M 245.28571428571428 101.28571428571429v 6.428571428571429h 6.428571428571429v -6.428571428571429z" transform="rotate(0,248.5,104.5)"/><path d="M 244 128.28571428571428v 6.428571428571429h 7.714285714285715v -6.428571428571429z" transform="rotate(-90,248.5,131.5)"/><path d="M 244 137.28571428571428v 6.428571428571429h 9v -6.428571428571429z" transform="rotate(90,248.5,140.5)"/><path d="M 244 146.28571428571428v 6.428571428571429h 7.714285714285715v -6.428571428571429z" transform="rotate(90,248.5,149.5)"/><path d="M 245.28571428571428 173.28571428571428v 6.428571428571429h 6.428571428571429v -6.428571428571429z" transform="rotate(0,248.5,176.5)"/><path d="M 245.28571428571428 218.28571428571428v 6.428571428571429h 6.428571428571429v -6.428571428571429z" transform="rotate(0,248.5,221.5)"/><path d="M 245.28571428571428 254.28571428571428v 6.428571428571429h 6.428571428571429v -6.428571428571429z" transform="rotate(0,248.5,257.5)"/><path d="M 245.28571428571428 290.2857142857143v 6.428571428571429h 6.428571428571429v -6.428571428571429z" transform="rotate(0,248.5,293.5)"/><path d="M 253 83.28571428571429v 6.428571428571429h 7.714285714285715v -6.428571428571429z" transform="rotate(-90,257.5,86.5)"/><path d="M 253 92.28571428571429v 6.428571428571429h 9v -6.428571428571429z" transform="rotate(90,257.5,95.5)"/><path d="M 253 101.28571428571429v 6.428571428571429h 9v -6.428571428571429z" transform="rotate(90,257.5,104.5)"/><path d="M 253 110.28571428571429v 6.428571428571429h 9v -6.428571428571429z" transform="rotate(90,257.5,113.5)"/><path d="M 253 119.28571428571429v 6.428571428571429h 7.714285714285715v -6.428571428571429z" transform="rotate(90,257.5,122.5)"/><path d="M 254.28571428571428 182.28571428571428v 6.428571428571429h 6.428571428571429v -6.428571428571429z" transform="rotate(0,257.5,185.5)"/><path d="M 254.28571428571428 200.28571428571428v 6.428571428571429h 6.428571428571429v -6.428571428571429z" transform="rotate(0,257.5,203.5)"/><path d="M 253 218.28571428571428v 6.428571428571429h 7.714285714285715v -6.428571428571429z" transform="rotate(-90,257.5,221.5)"/><path d="M 253 227.28571428571428v 6.428571428571429h 9v -6.428571428571429z" transform="rotate(90,257.5,230.5)"/><path d="M 253 236.28571428571428v 6.428571428571429h 9v -6.428571428571429z" transform="rotate(90,257.5,239.5)"/><path d="M 253 245.28571428571428v 6.428571428571429h 9v -6.428571428571429z" transform="rotate(90,257.5,248.5)"/><path d="M 253 254.28571428571428v 6.428571428571429h 7.714285714285715v -6.428571428571429z" transform="rotate(90,257.5,257.5)"/><path d="M 263.2857142857143 74.28571428571429v 6.428571428571429h 6.428571428571429v -6.428571428571429z" transform="rotate(0,266.5,77.5)"/><path d="M 262 92.28571428571429v 6.428571428571429h 7.714285714285715v -6.428571428571429z" transform="rotate(-90,266.5,95.5)"/><path d="M 262 101.28571428571429v 6.428571428571429h 9v -6.428571428571429z" transform="rotate(90,266.5,104.5)"/><path d="M 262 110.28571428571429v 6.428571428571429h 7.714285714285715v -6.428571428571429z" transform="rotate(90,266.5,113.5)"/><path d="M 262 146.28571428571428v 6.428571428571429h 7.714285714285715v -6.428571428571429z" transform="rotate(-90,266.5,149.5)"/><path d="M 262 155.28571428571428v 6.428571428571429h 7.714285714285715v -6.428571428571429z" transform="rotate(90,266.5,158.5)"/><path d="M 263.2857142857143 173.28571428571428v 6.428571428571429h 6.428571428571429v -6.428571428571429z" transform="rotate(0,266.5,176.5)"/><path d="M 263.2857142857143 218.28571428571428v 6.428571428571429h 6.428571428571429v -6.428571428571429z" transform="rotate(0,266.5,221.5)"/><path d="M 263.2857142857143 236.28571428571428v 6.428571428571429h 6.428571428571429v -6.428571428571429z" transform="rotate(0,266.5,239.5)"/><path d="M 262 254.28571428571428v 6.428571428571429h 7.714285714285715v -6.428571428571429z" transform="rotate(-90,266.5,257.5)"/><path d="M 262 263.2857142857143v 6.428571428571429h 7.714285714285715v -6.428571428571429z" transform="rotate(90,266.5,266.5)"/><path d="M 263.2857142857143 290.2857142857143v 6.428571428571429h 6.428571428571429v -6.428571428571429z" transform="rotate(0,266.5,293.5)"/><path d="M 271 119.28571428571429v 6.428571428571429h 7.714285714285715v -6.428571428571429z" transform="rotate(-90,275.5,122.5)"/><path d="M 271 128.28571428571428v 6.428571428571429h 9v -6.428571428571429z" transform="rotate(90,275.5,131.5)"/><path d="M 271 137.28571428571428v 6.428571428571429h 9v -6.428571428571429z" transform="rotate(90,275.5,140.5)"/><path d="M 271 146.28571428571428v 6.428571428571429h 7.714285714285715v -6.428571428571429z" transform="rotate(90,275.5,149.5)"/><path d="M 272.2857142857143 164.28571428571428v 6.428571428571429h 6.428571428571429v -6.428571428571429z" transform="rotate(0,275.5,167.5)"/><path d="M 271 191.28571428571428v 6.428571428571429h 7.714285714285715v -6.428571428571429z" transform="rotate(-90,275.5,194.5)"/><path d="M 271 200.28571428571428v 6.428571428571429h 7.714285714285715v -6.428571428571429z" transform="rotate(90,275.5,203.5)"/><path d="M 272.2857142857143 227.28571428571428v 6.428571428571429h 6.428571428571429v -6.428571428571429z" transform="rotate(0,275.5,230.5)"/><path d="M 271 245.28571428571428v 6.428571428571429h 7.714285714285715v -6.428571428571429z" transform="rotate(-90,275.5,248.5)"/><path d="M 271 254.28571428571428v 6.428571428571429h 7.714285714285715v -6.428571428571429z" transform="rotate(90,275.5,257.5)"/><path d="M 272.2857142857143 272.2857142857143v 6.428571428571429h 6.428571428571429v -6.428571428571429z" transform="rotate(0,275.5,275.5)"/><path d="M 272.2857142857143 290.2857142857143v 6.428571428571429h 6.428571428571429v -6.428571428571429z" transform="rotate(0,275.5,293.5)"/><path d="M 280 83.28571428571429v 6.428571428571429h 7.714285714285715v -6.428571428571429z" transform="rotate(-90,284.5,86.5)"/><path d="M 280 92.28571428571429v 6.428571428571429h 7.714285714285715v -6.428571428571429z" transform="rotate(90,284.5,95.5)"/><path d="M 281.2857142857143 110.28571428571429v 6.428571428571429h 6.428571428571429v -6.428571428571429z" transform="rotate(0,284.5,113.5)"/><path d="M 281.2857142857143 137.28571428571428v 6.428571428571429h 6.428571428571429v -6.428571428571429z" transform="rotate(0,284.5,140.5)"/><path d="M 280 155.28571428571428v 6.428571428571429h 7.714285714285715v -6.428571428571429z" transform="rotate(-90,284.5,158.5)"/><path d="M 280 164.28571428571428v 6.428571428571429h 9v -6.428571428571429z" transform="rotate(90,284.5,167.5)"/><path d="M 280 173.28571428571428v 6.428571428571429h 7.714285714285715v -6.428571428571429z" transform="rotate(90,284.5,176.5)"/><path d="M 280 200.28571428571428v 6.428571428571429h 7.714285714285715v -6.428571428571429z" transform="rotate(-90,284.5,203.5)"/><path d="M 280 209.28571428571428v 6.428571428571429h 9v -6.428571428571429z" transform="rotate(90,284.5,212.5)"/><path d="M 280 218.28571428571428v 6.428571428571429h 9v -6.428571428571429z" transform="rotate(90,284.5,221.5)"/><path d="M 280 227.28571428571428v 6.428571428571429h 7.714285714285715v -6.428571428571429z" transform="rotate(90,284.5,230.5)"/><path d="M 280 245.28571428571428v 6.428571428571429h 7.714285714285715v -6.428571428571429z" transform="rotate(-90,284.5,248.5)"/><path d="M 280 254.28571428571428v 6.428571428571429h 7.714285714285715v -6.428571428571429z" transform="rotate(90,284.5,257.5)"/><path d="M 290.2857142857143 92.28571428571429v 6.428571428571429h 6.428571428571429v -6.428571428571429z" transform="rotate(0,293.5,95.5)"/><path d="M 290.2857142857143 110.28571428571429v 6.428571428571429h 6.428571428571429v -6.428571428571429z" transform="rotate(0,293.5,113.5)"/><path d="M 289 155.28571428571428v 6.428571428571429h 7.714285714285715v -6.428571428571429z" transform="rotate(-90,293.5,158.5)"/><path d="M 289 164.28571428571428v 6.428571428571429h 7.714285714285715v -6.428571428571429z" transform="rotate(90,293.5,167.5)"/><path d="M 290.2857142857143 182.28571428571428v 6.428571428571429h 6.428571428571429v -6.428571428571429z" transform="rotate(0,293.5,185.5)"/><path d="M 289 209.28571428571428v 6.428571428571429h 7.714285714285715v -6.428571428571429z" transform="rotate(-90,293.5,212.5)"/><path d="M 289 218.28571428571428v 6.428571428571429h 9v -6.428571428571429z" transform="rotate(90,293.5,221.5)"/><path d="M 289 227.28571428571428v 6.428571428571429h 7.714285714285715v -6.428571428571429z" transform="rotate(90,293.5,230.5)"/><path d="M 289 245.28571428571428v 6.428571428571429h 7.714285714285715v -6.428571428571429z" transform="rotate(-90,293.5,248.5)"/><path d="M 289 254.28571428571428v 6.428571428571429h 7.714285714285715v -6.428571428571429z" transform="rotate(90,293.5,257.5)"/><path d="M 289 272.2857142857143v 6.428571428571429h 7.714285714285715v -6.428571428571429z" transform="rotate(-90,293.5,275.5)"/><path d="M 289 281.2857142857143v 6.428571428571429h 7.714285714285715v -6.428571428571429z" transform="rotate(90,293.5,284.5)"/></clipPath><linearGradient id="dot-color" gradientUnits="userSpaceOnUse" x1="1" y1="150" x2="298" y2="150"><stop offset="0%" stop-color="#ff758c"/><stop offset="100%" stop-color="#ff7eb3"/></linearGradient><clipPath id="clip-path-corners-square-color-0-0"><path clip-rule="evenodd" d="M28.17316 1.8929642366863908C30.42700923076923 0.12550795976331353, 33.59658769230769 0.12550989822485215, 35.85043692307693 1.8929642366863908L38.46503384615385 3.943255621301774L41.71021230769231 3.230425159763313C44.5078 2.615913467455621, 47.36334769230769 3.9910774674556206, 48.62703076923077 6.561419313609467L50.09308923076923 9.543083313609467L53.32624923076923 10.308891928994083C56.11336923076923 10.969054390532545, 58.089436923076924 13.447028544378698, 58.11289230769231 16.311163621301773L58.14003076923077 19.63355100591716L60.72070461538461 21.726314082840236C62.945476923076924 23.530440236686392, 63.65068923076923 26.620347928994082, 62.42907076923077 29.21110177514793L61.01205538461539 32.216298698224854L62.42907076923077 35.22149562130178C63.65068923076923 37.81224946745562, 62.945476923076924 40.90215715976331, 60.72070461538461 42.70628331360947L58.14003076923077 44.799046390532546L58.11289230769231 48.121569467455615C58.089436923076924 50.985646390532544, 56.11336923076923 53.46358177514793, 53.32624923076923 54.12382177514793L50.09308923076923 54.889514082840236L48.62703076923077 57.87125562130178C47.36334769230769 60.44165562130178, 44.5078 61.81680023668639, 41.71021230769231 61.20230792899408L38.46503384615385 60.48934177514793L35.85043692307693 62.5396525443787C33.59658769230769 64.30714177514794, 30.42700923076923 64.30714177514794, 28.17316 62.5396525443787L25.55856307692308 60.48934177514793L22.313384615384614 61.20230792899408C19.515893846153848 61.81680023668639, 16.660346153846152 60.44165562130178, 15.396527384615384 57.87125562130178L13.930488307692308 54.889514082840236L10.697367076923076 54.12382177514793C7.910227692307692 53.46358177514793, 5.9341406153846155 50.985646390532544, 5.910724 48.121569467455615L5.883546769230769 44.799046390532546L3.302872923076923 42.70628331360947C1.0781923046153845 40.90215715976331, 0.3729328923076922 37.81224946745562, 1.594539723076923 35.22149562130178L3.0116384615384613 32.216298698224854L1.594539723076923 29.21110177514793C0.3729309538461538 26.620347928994082, 1.0781973446153845 23.530440236686392, 3.302872923076923 21.726314082840236L5.883546769230769 19.63355100591716L5.910724 16.311163621301773C5.9341406153846155 13.447009159763313, 7.910247076923077 10.969054390532545, 10.697367076923076 10.308891928994083L13.930488307692308 9.543083313609467L15.396527384615384 6.561419313609467C16.660346153846152 3.9910774674556206, 19.515893846153848 2.615913467455621, 22.313384615384614 3.230425159763313L25.55856307692308 3.943255621301774L28.17316 1.8929642366863908M32.011895384615386 8.937721159763313L29.813486153846156 10.661653159763315C28.351886153846152 11.80782669822485, 26.45452 12.240898390532545, 24.640313846153845 11.84238946745562L21.911541538461538 11.243017159763314L20.678873846153845 13.75006823668639C19.859331076923077 15.416931928994082, 18.33777446153846 16.630331313609467, 16.53033353846154 17.058440544378698L13.811854461538461 17.70235869822485L13.789 20.4959725443787C13.773821846153846 22.353406390532545, 12.929428 24.106744852071007, 11.486728 25.276606390532546L9.316833538461538 27.03634177514793L10.508347692307693 29.56332023668639C11.300558153846154 31.24319100591716, 11.300558153846154 33.18940639053254, 10.508347692307693 34.86947100591716L9.316833538461538 37.396255621301776L11.486728 39.15599100591716L8.994913230769232 42.228646390532546L11.486728 39.15599100591716C12.929428 40.3258525443787, 13.773821846153846 42.07938485207101, 13.789 43.936624852071006L13.811854461538461 46.730335621301776L16.53033353846154 47.374292544378704C18.33777446153846 47.802304852071, 19.859331076923077 49.01578177514793, 20.678873846153845 50.68266485207101L21.911541538461538 53.18967715976331L24.640313846153845 52.59030485207101C26.45452 52.19175715976331, 28.351886153846152 52.62480946745562, 29.813486153846156 53.77102177514793L32.011895384615386 55.49489562130178L34.21011076923077 53.77102177514793C35.671710769230764 52.62480946745562, 37.56907692307692 52.19175715976331, 39.38328307692307 52.59030485207101L42.11205538461539 53.18967715976331L43.344723076923074 50.68266485207101C44.164304615384616 49.01578177514793, 45.68580307692307 47.802304852071, 47.49322461538462 47.374292544378704L50.21172307692308 46.730335621301776L50.23459692307693 43.936624852071006C50.249716923076925 42.07938485207101, 51.09411076923077 40.3258525443787, 52.53690769230769 39.15599100591716L54.70682153846154 37.396255621301776L53.51524923076923 34.86947100591716C52.723 33.18940639053254, 52.723 31.24319100591716, 53.51524923076923 29.56332023668639L54.70682153846154 27.03634177514793L52.53690769230769 25.27680023668639C51.09411076923077 24.106744852071007, 50.249716923076925 22.353406390532545, 50.23459692307693 20.4959725443787L50.21172307692308 17.70235869822485L47.49322461538462 17.058440544378698C45.68580307692307 16.630331313609467, 44.164304615384616 15.416931928994082, 43.344723076923074 13.750087621301775L42.11205538461539 11.243017159763314L39.38328307692307 11.84238946745562C37.56907692307692 12.240898390532545, 35.67190461538461 11.807846082840237, 34.21011076923077 10.661653159763315L32.011895384615386 8.937721159763313Z" transform="rotate(0,32.5,32.5)"/></clipPath><linearGradient id="corners-square-color-0-0" gradientUnits="userSpaceOnUse" x1="1" y1="33" x2="64" y2="33"><stop offset="0%" stop-color="#ff758c"/><stop offset="100%" stop-color="#ff7eb3"/></linearGradient><clipPath id="clip-path-corners-dot-color-0-0"><path clip-rule="evenodd" d="M 31.461538461538463,20.391538461538463c0.6023076923076923,-0.913846153846154,1.993846153846154,-0.913846153846154,2.5961538461538463,0l3.634615384615385,5.462307692307693c0.20769230769230773,0.31153846153846154,0.54,0.54,0.913846153846154,0.6438461538461538l6.500769230769231,1.640769230769231c1.08,0.27,1.5161538461538462,1.536923076923077,0.81,2.3884615384615384l-4.257692307692308,5.026153846153846c-0.24923076923076926,0.29076923076923084,-0.3738461538461539,0.6646153846153847,-0.3530769230769231,1.0176923076923077l0.39461538461538465,6.48c0.062307692307692314,1.08,-1.0592307692307694,1.8692307692307695,-2.097692307692308,1.4746153846153847l-6.272307692307693,-2.346923076923077c-0.3530769230769231,-0.14538461538461542,-0.7684615384615385,-0.14538461538461542,-1.1215384615384616,0l-6.272307692307693,2.346923076923077c-1.0384615384615385,0.39461538461538465,-2.16,-0.39461538461538465,-2.097692307692308,-1.4746153846153847l0.39461538461538465,-6.48c0.020769230769230772,-0.3738461538461539,-0.10384615384615387,-0.7476923076923078,-0.3530769230769231,-1.0176923076923077l-4.257692307692308,-5.026153846153846c-0.7061538461538462,-0.8307692307692309,-0.29076923076923084,-2.097692307692308,0.81,-2.3884615384615384l6.500769230769231,-1.640769230769231c0.3738461538461539,-0.10384615384615387,0.7061538461538462,-0.31153846153846154,0.913846153846154,-0.6438461538461538l3.634615384615385,-5.462307692307693z" transform="rotate(0,32.5,32.5)"/></clipPath><linearGradient id="corners-dot-color-0-0" gradientUnits="userSpaceOnUse" x1="19" y1="33" x2="46" y2="33"><stop offset="0%" stop-color="#ff758c"/><stop offset="100%" stop-color="#ff7eb3"/></linearGradient><clipPath id="clip-path-corners-square-color-1-0"><path clip-rule="evenodd" d="M262.17316 1.8929642366863908C264.4270092307692 0.12550795976331353, 267.5965876923077 0.12550989822485215, 269.8504369230769 1.8929642366863908L272.46503384615386 3.943255621301774L275.7102123076923 3.230425159763313C278.5078 2.615913467455621, 281.3633476923077 3.9910774674556206, 282.62703076923077 6.561419313609467L284.09308923076924 9.543083313609467L287.32624923076924 10.308891928994083C290.11336923076925 10.969054390532545, 292.0894369230769 13.447028544378698, 292.11289230769233 16.311163621301773L292.14003076923075 19.63355100591716L294.7207046153846 21.726314082840236C296.9454769230769 23.530440236686392, 297.6506892307692 26.620347928994082, 296.42907076923075 29.21110177514793L295.0120553846154 32.216298698224854L296.42907076923075 35.22149562130178C297.6506892307692 37.81224946745562, 296.9454769230769 40.90215715976331, 294.7207046153846 42.70628331360947L292.14003076923075 44.799046390532546L292.11289230769233 48.121569467455615C292.0894369230769 50.985646390532544, 290.11336923076925 53.46358177514793, 287.32624923076924 54.12382177514793L284.09308923076924 54.889514082840236L282.62703076923077 57.87125562130178C281.3633476923077 60.44165562130178, 278.5078 61.81680023668639, 275.7102123076923 61.20230792899408L272.46503384615386 60.48934177514793L269.8504369230769 62.5396525443787C267.5965876923077 64.30714177514794, 264.4270092307692 64.30714177514794, 262.17316 62.5396525443787L259.55856307692306 60.48934177514793L256.3133846153846 61.20230792899408C253.51589384615386 61.81680023668639, 250.66034615384615 60.44165562130178, 249.39652738461538 57.87125562130178L247.93048830769231 54.889514082840236L244.6973670769231 54.12382177514793C241.9102276923077 53.46358177514793, 239.93414061538462 50.985646390532544, 239.910724 48.121569467455615L239.88354676923078 44.799046390532546L237.30287292307693 42.70628331360947C235.07819230461538 40.90215715976331, 234.3729328923077 37.81224946745562, 235.59453972307693 35.22149562130178L237.01163846153847 32.216298698224854L235.59453972307693 29.21110177514793C234.37293095384615 26.620347928994082, 235.07819734461538 23.530440236686392, 237.30287292307693 21.726314082840236L239.88354676923078 19.63355100591716L239.910724 16.311163621301773C239.93414061538462 13.447009159763313, 241.91024707692307 10.969054390532545, 244.6973670769231 10.308891928994083L247.93048830769231 9.543083313609467L249.39652738461538 6.561419313609467C250.66034615384615 3.9910774674556206, 253.51589384615386 2.615913467455621, 256.3133846153846 3.230425159763313L259.55856307692306 3.943255621301774L262.17316 1.8929642366863908M266.0118953846154 8.937721159763313L263.81348615384616 10.661653159763315C262.3518861538462 11.80782669822485, 260.45452 12.240898390532545, 258.64031384615384 11.84238946745562L255.91154153846153 11.243017159763314L254.67887384615383 13.75006823668639C253.85933107692307 15.416931928994082, 252.33777446153846 16.630331313609467, 250.53033353846155 17.058440544378698L247.81185446153847 17.70235869822485L247.789 20.4959725443787C247.77382184615385 22.353406390532545, 246.929428 24.106744852071007, 245.486728 25.276606390532546L243.31683353846154 27.03634177514793L244.5083476923077 29.56332023668639C245.30055815384617 31.24319100591716, 245.30055815384617 33.18940639053254, 244.5083476923077 34.86947100591716L243.31683353846154 37.396255621301776L245.486728 39.15599100591716L242.99491323076924 42.228646390532546L245.486728 39.15599100591716C246.929428 40.3258525443787, 247.77382184615385 42.07938485207101, 247.789 43.936624852071006L247.81185446153847 46.730335621301776L250.53033353846155 47.374292544378704C252.33777446153846 47.802304852071, 253.85933107692307 49.01578177514793, 254.67887384615383 50.68266485207101L255.91154153846153 53.18967715976331L258.64031384615384 52.59030485207101C260.45452 52.19175715976331, 262.3518861538462 52.62480946745562, 263.81348615384616 53.77102177514793L266.0118953846154 55.49489562130178L268.21011076923077 53.77102177514793C269.67171076923074 52.62480946745562, 271.5690769230769 52.19175715976331, 273.3832830769231 52.59030485207101L276.11205538461536 53.18967715976331L277.34472307692306 50.68266485207101C278.1643046153846 49.01578177514793, 279.6858030769231 47.802304852071, 281.49322461538463 47.374292544378704L284.2117230769231 46.730335621301776L284.23459692307694 43.936624852071006C284.2497169230769 42.07938485207101, 285.0941107692308 40.3258525443787, 286.5369076923077 39.15599100591716L288.70682153846155 37.396255621301776L287.5152492307692 34.86947100591716C286.723 33.18940639053254, 286.723 31.24319100591716, 287.5152492307692 29.56332023668639L288.70682153846155 27.03634177514793L286.5369076923077 25.27680023668639C285.0941107692308 24.106744852071007, 284.2497169230769 22.353406390532545, 284.23459692307694 20.4959725443787L284.2117230769231 17.70235869822485L281.49322461538463 17.058440544378698C279.6858030769231 16.630331313609467, 278.1643046153846 15.416931928994082, 277.34472307692306 13.750087621301775L276.11205538461536 11.243017159763314L273.3832830769231 11.84238946745562C271.5690769230769 12.240898390532545, 269.6719046153846 11.807846082840237, 268.21011076923077 10.661653159763315L266.0118953846154 8.937721159763313Z" transform="rotate(0,266.5,32.5)"/></clipPath><linearGradient id="corners-square-color-1-0" gradientUnits="userSpaceOnUse" x1="267" y1="1" x2="267" y2="64"><stop offset="0%" stop-color="#ff758c"/><stop offset="100%" stop-color="#ff7eb3"/></linearGradient><clipPath id="clip-path-corners-dot-color-1-0"><path clip-rule="evenodd" d="M 265.46153846153845,20.391538461538463c0.6023076923076923,-0.913846153846154,1.993846153846154,-0.913846153846154,2.5961538461538463,0l3.634615384615385,5.462307692307693c0.20769230769230773,0.31153846153846154,0.54,0.54,0.913846153846154,0.6438461538461538l6.500769230769231,1.640769230769231c1.08,0.27,1.5161538461538462,1.536923076923077,0.81,2.3884615384615384l-4.257692307692308,5.026153846153846c-0.24923076923076926,0.29076923076923084,-0.3738461538461539,0.6646153846153847,-0.3530769230769231,1.0176923076923077l0.39461538461538465,6.48c0.062307692307692314,1.08,-1.0592307692307694,1.8692307692307695,-2.097692307692308,1.4746153846153847l-6.272307692307693,-2.346923076923077c-0.3530769230769231,-0.14538461538461542,-0.7684615384615385,-0.14538461538461542,-1.1215384615384616,0l-6.272307692307693,2.346923076923077c-1.0384615384615385,0.39461538461538465,-2.16,-0.39461538461538465,-2.097692307692308,-1.4746153846153847l0.39461538461538465,-6.48c0.020769230769230772,-0.3738461538461539,-0.10384615384615387,-0.7476923076923078,-0.3530769230769231,-1.0176923076923077l-4.257692307692308,-5.026153846153846c-0.7061538461538462,-0.8307692307692309,-0.29076923076923084,-2.097692307692308,0.81,-2.3884615384615384l6.500769230769231,-1.640769230769231c0.3738461538461539,-0.10384615384615387,0.7061538461538462,-0.31153846153846154,0.913846153846154,-0.6438461538461538l3.634615384615385,-5.462307692307693z" transform="rotate(0,266.5,32.5)"/></clipPath><linearGradient id="corners-dot-color-1-0" gradientUnits="userSpaceOnUse" x1="267" y1="19" x2="267" y2="46"><stop offset="0%" stop-color="#ff758c"/><stop offset="100%" stop-color="#ff7eb3"/></linearGradient><clipPath id="clip-path-corners-square-color-0-1"><path clip-rule="evenodd" d="M28.17316 235.8929642366864C30.42700923076923 234.12550795976333, 33.59658769230769 234.12550989822486, 35.85043692307693 235.8929642366864L38.46503384615385 237.94325562130177L41.71021230769231 237.2304251597633C44.5078 236.61591346745564, 47.36334769230769 237.99107746745563, 48.62703076923077 240.56141931360946L50.09308923076923 243.5430833136095L53.32624923076923 244.3088919289941C56.11336923076923 244.96905439053256, 58.089436923076924 247.4470285443787, 58.11289230769231 250.31116362130177L58.14003076923077 253.63355100591716L60.72070461538461 255.72631408284022C62.945476923076924 257.5304402366864, 63.65068923076923 260.6203479289941, 62.42907076923077 263.21110177514794L61.01205538461539 266.2162986982248L62.42907076923077 269.22149562130176C63.65068923076923 271.8122494674556, 62.945476923076924 274.9021571597633, 60.72070461538461 276.70628331360945L58.14003076923077 278.7990463905325L58.11289230769231 282.1215694674556C58.089436923076924 284.9856463905325, 56.11336923076923 287.46358177514793, 53.32624923076923 288.1238217751479L50.09308923076923 288.8895140828402L48.62703076923077 291.87125562130177C47.36334769230769 294.4416556213018, 44.5078 295.8168002366864, 41.71021230769231 295.20230792899406L38.46503384615385 294.4893417751479L35.85043692307693 296.53965254437867C33.59658769230769 298.3071417751479, 30.42700923076923 298.3071417751479, 28.17316 296.53965254437867L25.55856307692308 294.4893417751479L22.313384615384614 295.20230792899406C19.515893846153848 295.8168002366864, 16.660346153846152 294.4416556213018, 15.396527384615384 291.87125562130177L13.930488307692308 288.8895140828402L10.697367076923076 288.1238217751479C7.910227692307692 287.46358177514793, 5.9341406153846155 284.9856463905325, 5.910724 282.1215694674556L5.883546769230769 278.7990463905325L3.302872923076923 276.70628331360945C1.0781923046153845 274.9021571597633, 0.3729328923076922 271.8122494674556, 1.594539723076923 269.22149562130176L3.0116384615384613 266.2162986982248L1.594539723076923 263.21110177514794C0.3729309538461538 260.6203479289941, 1.0781973446153845 257.5304402366864, 3.302872923076923 255.72631408284022L5.883546769230769 253.63355100591716L5.910724 250.31116362130177C5.9341406153846155 247.44700915976333, 7.910247076923077 244.96905439053256, 10.697367076923076 244.3088919289941L13.930488307692308 243.5430833136095L15.396527384615384 240.56141931360946C16.660346153846152 237.99107746745563, 19.515893846153848 236.61591346745564, 22.313384615384614 237.2304251597633L25.55856307692308 237.94325562130177L28.17316 235.8929642366864M32.011895384615386 242.93772115976333L29.813486153846156 244.66165315976332C28.351886153846152 245.80782669822486, 26.45452 246.24089839053255, 24.640313846153845 245.84238946745563L21.911541538461538 245.24301715976333L20.678873846153845 247.7500682366864C19.859331076923077 249.4169319289941, 18.33777446153846 250.63033131360947, 16.53033353846154 251.0584405443787L13.811854461538461 251.70235869822486L13.789 254.4959725443787C13.773821846153846 256.35340639053254, 12.929428 258.10674485207096, 11.486728 259.27660639053255L9.316833538461538 261.0363417751479L10.508347692307693 263.56332023668637C11.300558153846154 265.24319100591714, 11.300558153846154 267.1894063905325, 10.508347692307693 268.86947100591715L9.316833538461538 271.39625562130175L11.486728 273.15599100591714L8.994913230769232 276.2286463905325L11.486728 273.15599100591714C12.929428 274.3258525443787, 13.773821846153846 276.079384852071, 13.789 277.93662485207096L13.811854461538461 280.7303356213018L16.53033353846154 281.3742925443787C18.33777446153846 281.80230485207096, 19.859331076923077 283.0157817751479, 20.678873846153845 284.682664852071L21.911541538461538 287.1896771597633L24.640313846153845 286.590304852071C26.45452 286.1917571597633, 28.351886153846152 286.6248094674556, 29.813486153846156 287.7710217751479L32.011895384615386 289.49489562130174L34.21011076923077 287.7710217751479C35.671710769230764 286.6248094674556, 37.56907692307692 286.1917571597633, 39.38328307692307 286.590304852071L42.11205538461539 287.1896771597633L43.344723076923074 284.682664852071C44.164304615384616 283.0157817751479, 45.68580307692307 281.80230485207096, 47.49322461538462 281.3742925443787L50.21172307692308 280.7303356213018L50.23459692307693 277.93662485207096C50.249716923076925 276.079384852071, 51.09411076923077 274.3258525443787, 52.53690769230769 273.15599100591714L54.70682153846154 271.39625562130175L53.51524923076923 268.86947100591715C52.723 267.1894063905325, 52.723 265.24319100591714, 53.51524923076923 263.56332023668637L54.70682153846154 261.0363417751479L52.53690769230769 259.27680023668637C51.09411076923077 258.10674485207096, 50.249716923076925 256.35340639053254, 50.23459692307693 254.4959725443787L50.21172307692308 251.70235869822486L47.49322461538462 251.0584405443787C45.68580307692307 250.63033131360947, 44.164304615384616 249.4169319289941, 43.344723076923074 247.7500876213018L42.11205538461539 245.24301715976333L39.38328307692307 245.84238946745563C37.56907692307692 246.24089839053255, 35.67190461538461 245.80784608284026, 34.21011076923077 244.66165315976332L32.011895384615386 242.93772115976333Z" transform="rotate(0,32.5,266.5)"/></clipPath><linearGradient id="corners-square-color-0-1" gradientUnits="userSpaceOnUse" x1="33" y1="298" x2="33" y2="235"><stop offset="0%" stop-color="#ff758c"/><stop offset="100%" stop-color="#ff7eb3"/></linearGradient><clipPath id="clip-path-corners-dot-color-0-1"><path clip-rule="evenodd" d="M 31.461538461538463,254.39153846153846c0.6023076923076923,-0.913846153846154,1.993846153846154,-0.913846153846154,2.5961538461538463,0l3.634615384615385,5.462307692307693c0.20769230769230773,0.31153846153846154,0.54,0.54,0.913846153846154,0.6438461538461538l6.500769230769231,1.640769230769231c1.08,0.27,1.5161538461538462,1.536923076923077,0.81,2.3884615384615384l-4.257692307692308,5.026153846153846c-0.24923076923076926,0.29076923076923084,-0.3738461538461539,0.6646153846153847,-0.3530769230769231,1.0176923076923077l0.39461538461538465,6.48c0.062307692307692314,1.08,-1.0592307692307694,1.8692307692307695,-2.097692307692308,1.4746153846153847l-6.272307692307693,-2.346923076923077c-0.3530769230769231,-0.14538461538461542,-0.7684615384615385,-0.14538461538461542,-1.1215384615384616,0l-6.272307692307693,2.346923076923077c-1.0384615384615385,0.39461538461538465,-2.16,-0.39461538461538465,-2.097692307692308,-1.4746153846153847l0.39461538461538465,-6.48c0.020769230769230772,-0.3738461538461539,-0.10384615384615387,-0.7476923076923078,-0.3530769230769231,-1.0176923076923077l-4.257692307692308,-5.026153846153846c-0.7061538461538462,-0.8307692307692309,-0.29076923076923084,-2.097692307692308,0.81,-2.3884615384615384l6.500769230769231,-1.640769230769231c0.3738461538461539,-0.10384615384615387,0.7061538461538462,-0.31153846153846154,0.913846153846154,-0.6438461538461538l3.634615384615385,-5.462307692307693z" transform="rotate(0,32.5,266.5)"/></clipPath><linearGradient id="corners-dot-color-0-1" gradientUnits="userSpaceOnUse" x1="33" y1="280" x2="33" y2="253"><stop offset="0%" stop-color="#ff758c"/><stop offset="100%" stop-color="#ff7eb3"/></linearGradient></defs><rect x="1" y="1" height="297" width="297" clip-path="url('#clip-path-dot-color')" fill="url('#dot-color')"/><rect x="1" y="1" height="63" width="63" clip-path="url('#clip-path-corners-square-color-0-0')" fill="url('#corners-square-color-0-0')"/><rect x="19" y="19" height="27" width="27" clip-path="url('#clip-path-corners-dot-color-0-0')" fill="url('#corners-dot-color-0-0')"/><rect x="235" y="1" height="63" width="63" clip-path="url('#clip-path-corners-square-color-1-0')" fill="url('#corners-square-color-1-0')"/><rect x="253" y="19" height="27" width="27" clip-path="url('#clip-path-corners-dot-color-1-0')" fill="url('#corners-dot-color-1-0')"/><rect x="1" y="235" height="63" width="63" clip-path="url('#clip-path-corners-square-color-0-1')" fill="url('#corners-square-color-0-1')"/><rect x="19" y="253" height="27" width="27" clip-path="url('#clip-path-corners-dot-color-0-1')" fill="url('#corners-dot-color-0-1')"/></svg></g></g></svg></svg>